# xmcd
#
# Track frame offsets:
#	150
#	13544
#	28152
#	38942
#	52528
#	67732
#	82163
#	93708
#	110376
#	125030
#	139063
#	152414
#
# Disc length: 2249 seconds
#
# Revision: 0
# Processed by: cddbd v1.5.2PL0 Copyright (c) Steve Scherf et al.
# Submitted via: audiograbber 1.83.01
#
DISCID=9508c70c
DTITLE=Trio Melody - Mei liaba Bua, gea trau di nur
DYEAR=2009
DGENRE=Schlager
TTITLE0=Lange Rede, kurzer Sinn
TTITLE1=Mei liaba Bua, gea trau di nur
TTITLE2=Der Herrgott hat die Musig gern
TTITLE3=Dreh die Zeit noch einmal zurück
TTITLE4=Drei mal drei ist neune
TTITLE5=Doch irgendwie
TTITLE6=Weberhäusl Song
TTITLE7=Maria
TTITLE8=Fesche Madln gibt es überall
TTITLE9=Ich seh' den Sommer in deinen Augen
TTITLE10=Weerberger Steinschaf Boarischer
TTITLE11=Cara mia, ja
EXTD=
EXTT0=
EXTT1=
EXTT2=
EXTT3=
EXTT4=
EXTT5=
EXTT6=
EXTT7=
EXTT8=
EXTT9=
EXTT10=
EXTT11=
PLAYORDER=
